<svg xmlns="http://www.w3.org/2000/svg" width="1047" height="768" viewBox="0 0 1047 768"><rect width="991" height="712" x="28" y="28" fill="none" rx="16" ry="16"/><text x="523.5" y="120" fill="#000" font-family="monospace" font-size="96" font-weight="normal" text-anchor="middle">DataFrame</text><rect width="168" height="78" x="354.5" y="237" fill="#aaa"/><rect width="168" height="78" x="524.5" y="237" fill="#aaa"/><rect width="168" height="78" x="694.5" y="237" fill="#aaa"/><rect width="168" height="88" x="184.5" y="317" fill="#aaa"/><rect width="168" height="88" x="184.5" y="407" fill="#aaa"/><rect width="168" height="88" x="184.5" y="497" fill="#aaa"/><rect width="168" height="88" x="184.5" y="587" fill="#aaa"/><rect width="168" height="88" x="354.5" y="317" fill="#d8d8d880"/><rect width="168" height="88" x="524.5" y="317" fill="#d8d8d880"/><rect width="168" height="88" x="694.5" y="317" fill="#d8d8d880"/><rect width="168" height="88" x="354.5" y="407" fill="#d8d8d880"/><rect width="168" height="88" x="524.5" y="407" fill="#d8d8d880"/><rect width="168" height="88" x="694.5" y="407" fill="#d8d8d880"/><rect width="168" height="88" x="354.5" y="497" fill="#d8d8d880"/><rect width="168" height="88" x="524.5" y="497" fill="#d8d8d880"/><rect width="168" height="88" x="694.5" y="497" fill="#d8d8d880"/><rect width="168" height="88" x="354.5" y="587" fill="#d8d8d880"/><rect width="168" height="88" x="524.5" y="587" fill="#d8d8d880"/><rect width="168" height="88" x="694.5" y="587" fill="#d8d8d880"/><line x1="353.5" x2="353.5" y1="236" y2="676" stroke="#none" stroke-width="6"/><line x1="523.5" x2="523.5" y1="236" y2="676" stroke="#none" stroke-width="6"/><line x1="693.5" x2="693.5" y1="236" y2="676" stroke="#none" stroke-width="6"/><line x1="863.5" x2="863.5" y1="236" y2="676" stroke="#none" stroke-width="6"/><line x1="183.5" x2="863.5" y1="236" y2="236" stroke="#none" stroke-width="6"/><line x1="183.5" x2="863.5" y1="316" y2="316" stroke="#none" stroke-width="6"/><line x1="183.5" x2="863.5" y1="406" y2="406" stroke="#none" stroke-width="6"/><line x1="183.5" x2="863.5" y1="496" y2="496" stroke="#none" stroke-width="6"/><line x1="183.5" x2="863.5" y1="586" y2="586" stroke="#none" stroke-width="6"/><rect width="680" height="440" x="183.5" y="236" fill="none" stroke="#none" stroke-width="6"/><text x="438.5" y="286" fill="#000" font-family="monospace" font-size="28" font-weight="normal" text-anchor="middle">Name</text><text x="608.5" y="286" fill="#000" font-family="monospace" font-size="28" font-weight="normal" text-anchor="middle">Age</text><text x="778.5" y="286" fill="#000" font-family="monospace" font-size="28" font-weight="normal" text-anchor="middle">Sex</text><text x="268.5" y="371" fill="#000" font-family="monospace" font-size="28" font-weight="normal" text-anchor="middle">0</text><text x="268.5" y="461" fill="#000" font-family="monospace" font-size="28" font-weight="normal" text-anchor="middle">1</text><text x="268.5" y="551" fill="#000" font-family="monospace" font-size="28" font-weight="normal" text-anchor="middle">2</text><text x="268.5" y="641" fill="#000" font-family="monospace" font-size="28" font-weight="normal" text-anchor="middle">3</text><rect width="170" height="440" x="693.5" y="236" fill="none" stroke="navy" stroke-width="2"/><text x="778.5" y="721" fill="navy" font-family="monospace" font-size="40" font-weight="normal" text-anchor="middle">column</text><rect width="680" height="90" x="183.5" y="406" fill="none" stroke="maroon" stroke-width="2"/><text x="938.5" y="461" fill="maroon" font-family="monospace" font-size="40" font-weight="normal" text-anchor="middle">row</text><rect width="170" height="360" x="183.5" y="316" fill="none" stroke="#3b3b3b" stroke-width="4"/><text x="268.5" y="721" fill="#000" font-family="monospace" font-size="40" font-weight="normal" text-anchor="middle">index</text><rect width="510" height="80" x="353.5" y="236" fill="none" stroke="#3b3b3b" stroke-width="4"/><text x="933.5" y="296" fill="#000" font-family="monospace" font-size="40" font-weight="normal" text-anchor="middle">label</text></svg>